<svg width="40" height="40" viewBox="0 0 40 40" fill="none" xmlns="http://www.w3.org/2000/svg">
<path d="M33.3333 20V31C33.3333 32.8856 33.3333 33.8284 32.7475 34.4142C32.1617 35 31.2189 35 29.3333 35H10.8333C9.74768 35 9.20488 35 8.76451 34.8612C7.83102 34.5668 7.0998 33.8356 6.80548 32.9021C6.66663 32.4617 6.66663 31.9189 6.66663 30.8333V30.8333C6.66663 29.7477 6.66663 29.2049 6.80548 28.7645C7.0998 27.8311 7.83102 27.0998 8.76451 26.8055C9.20488 26.6667 9.74769 26.6667 10.8333 26.6667H29.3333C31.2189 26.6667 32.1617 26.6667 32.7475 26.0809C33.3333 25.4951 33.3333 24.5523 33.3333 22.6667V9C33.3333 7.11438 33.3333 6.17157 32.7475 5.58579C32.1617 5 31.2189 5 29.3333 5H10.6666C8.78101 5 7.8382 5 7.25241 5.58579C6.66663 6.17157 6.66663 7.11438 6.66663 9V30.8333" stroke="#DDCECE" stroke-width="2"/>
<path d="M15 16.6666L17.6262 19.2928C18.0168 19.6833 18.6499 19.6833 19.0404 19.2928L25 13.3333" stroke="#DDCECE" stroke-width="2" stroke-linecap="round"/>
</svg>
