<svg width="40" height="40" viewBox="0 0 40 40" fill="none" xmlns="http://www.w3.org/2000/svg">
<path fill-rule="evenodd" clip-rule="evenodd" d="M10.8333 26.6667H26.6666C29.8093 26.6667 31.3807 26.6667 32.357 25.6904C33.3333 24.714 33.3333 23.1427 33.3333 20V11.6667C33.3333 8.52397 33.3333 6.95262 32.357 5.97631C31.3807 5 29.8093 5 26.6666 5H13.3333C10.1906 5 8.61925 5 7.64294 5.97631C6.66663 6.95262 6.66663 8.52397 6.66663 11.6667V30.8333C6.66663 28.5321 8.53211 26.6667 10.8333 26.6667ZM26.4142 14.7475C27.1952 13.9665 27.1952 12.7002 26.4142 11.9191C25.6331 11.1381 24.3668 11.1381 23.5857 11.9191L18.3333 17.1716L16.4142 15.2525C15.6331 14.4714 14.3668 14.4714 13.5857 15.2525C12.8047 16.0335 12.8047 17.2998 13.5857 18.0809L16.212 20.7071C17.3835 21.8787 19.283 21.8787 20.4546 20.7071L26.4142 14.7475Z" fill="white"/>
<path d="M26.4142 14.7475L25.7071 14.0404L25.7071 14.0404L26.4142 14.7475ZM23.5857 11.9191L24.2929 12.6262V12.6262L23.5857 11.9191ZM18.3333 17.1716L17.6262 17.8787L18.3333 18.5858L19.0404 17.8787L18.3333 17.1716ZM16.4142 15.2525L15.7071 15.9596H15.7071L16.4142 15.2525ZM13.5857 18.0809L14.2929 17.3738H14.2929L13.5857 18.0809ZM16.212 20.7071L15.5049 21.4142L16.212 20.7071ZM20.4546 20.7071L21.1617 21.4142H21.1617L20.4546 20.7071ZM26.6666 25.6667H10.8333V27.6667H26.6666V25.6667ZM31.6499 24.9832C31.3785 25.2546 30.9878 25.4464 30.191 25.5535C29.3654 25.6645 28.2662 25.6667 26.6666 25.6667V27.6667C28.2097 27.6667 29.4676 27.6688 30.4574 27.5357C31.476 27.3988 32.3592 27.1024 33.0641 26.3975L31.6499 24.9832ZM32.3333 20C32.3333 21.5996 32.3312 22.6987 32.2202 23.5243C32.113 24.3211 31.9213 24.7119 31.6499 24.9832L33.0641 26.3975C33.769 25.6925 34.0654 24.8094 34.2023 23.7908C34.3354 22.801 34.3333 21.5431 34.3333 20H32.3333ZM32.3333 11.6667V20H34.3333V11.6667H32.3333ZM31.6499 6.68342C31.9213 6.9548 32.113 7.34552 32.2202 8.14234C32.3312 8.96793 32.3333 10.067 32.3333 11.6667H34.3333C34.3333 10.1236 34.3354 8.86568 34.2023 7.87585C34.0654 6.85724 33.769 5.97413 33.0641 5.2692L31.6499 6.68342ZM26.6666 6C28.2662 6 29.3654 6.00212 30.191 6.11312C30.9878 6.22025 31.3785 6.41203 31.6499 6.68342L33.0641 5.2692C32.3592 4.56428 31.476 4.2679 30.4574 4.13096C29.4676 3.99788 28.2097 4 26.6666 4V6ZM13.3333 6H26.6666V4H13.3333V6ZM8.35004 6.68342C8.62143 6.41203 9.01214 6.22025 9.80897 6.11312C10.6346 6.00212 11.7337 6 13.3333 6V4C11.7902 4 10.5323 3.99788 9.54247 4.13096C8.52387 4.2679 7.64075 4.56428 6.93583 5.2692L8.35004 6.68342ZM7.66663 11.6667C7.66663 10.067 7.66875 8.96793 7.77975 8.14234C7.88688 7.34552 8.07866 6.9548 8.35004 6.68342L6.93583 5.2692C6.23091 5.97413 5.93453 6.85724 5.79758 7.87585C5.6645 8.86568 5.66663 10.1236 5.66663 11.6667H7.66663ZM7.66663 30.8333V11.6667H5.66663V30.8333H7.66663ZM10.8333 25.6667C7.97982 25.6667 5.66663 27.9799 5.66663 30.8333H7.66663C7.66663 29.0844 9.08439 27.6667 10.8333 27.6667V25.6667ZM25.7071 12.6262C26.0976 13.0168 26.0976 13.6499 25.7071 14.0404L27.1213 15.4547C28.2929 14.2831 28.2929 12.3836 27.1213 11.212L25.7071 12.6262ZM24.2929 12.6262C24.6834 12.2357 25.3165 12.2357 25.7071 12.6262L27.1213 11.212C25.9497 10.0404 24.0502 10.0404 22.8786 11.212L24.2929 12.6262ZM19.0404 17.8787L24.2929 12.6262L22.8786 11.212L17.6262 16.4645L19.0404 17.8787ZM15.7071 15.9596L17.6262 17.8787L19.0404 16.4645L17.1213 14.5453L15.7071 15.9596ZM14.2929 15.9596C14.6834 15.569 15.3165 15.569 15.7071 15.9596L17.1213 14.5453C15.9497 13.3738 14.0502 13.3738 12.8786 14.5453L14.2929 15.9596ZM14.2929 17.3738C13.9023 16.9832 13.9023 16.3501 14.2929 15.9596L12.8786 14.5453C11.7071 15.7169 11.7071 17.6164 12.8786 18.788L14.2929 17.3738ZM16.9191 20L14.2929 17.3738L12.8786 18.788L15.5049 21.4142L16.9191 20ZM19.7475 20C18.9665 20.781 17.7001 20.781 16.9191 20L15.5049 21.4142C17.067 22.9763 19.5996 22.9763 21.1617 21.4142L19.7475 20ZM25.7071 14.0404L19.7475 20L21.1617 21.4142L27.1213 15.4547L25.7071 14.0404ZM18.3333 34H10.8333V36H18.3333V34ZM5.66663 30.8333C5.66663 33.6868 7.97982 36 10.8333 36V34C9.08439 34 7.66663 32.5822 7.66663 30.8333H5.66663Z" fill="white"/>
<path d="M33.3333 35H16.6666" stroke="white" stroke-width="2" stroke-linecap="round"/>
</svg>
