<svg width="40" height="40" viewBox="0 0 40 40" fill="none" xmlns="http://www.w3.org/2000/svg">
<path d="M20 8V32" stroke="#DDCECE" stroke-width="2" stroke-linecap="round"/>
<path d="M37 8L37 32" stroke="#DDCECE" stroke-width="2" stroke-linecap="round"/>
<path d="M3 8L3 32" stroke="#DDCECE" stroke-width="2" stroke-linecap="round"/>
<path d="M37 32C37 32 35.1111 28 28.5 28C21.8889 28 20 32 20 32" stroke="#DDCECE" stroke-width="2" stroke-linecap="round"/>
<path d="M20 32C20 32 18.1111 28 11.5 28C4.88889 28 3 32 3 32" stroke="#DDCECE" stroke-width="2" stroke-linecap="round"/>
<path d="M37 8C37 8 35.1111 4 28.5 4C21.8889 4 20 8 20 8" stroke="#DDCECE" stroke-width="2" stroke-linecap="round"/>
<path d="M20 8C20 8 18.1111 4 11.5 4C4.88889 4 3 8 3 8" stroke="#DDCECE" stroke-width="2" stroke-linecap="round"/>
</svg>
