<svg width="40" height="40" viewBox="0 0 40 40" fill="none" xmlns="http://www.w3.org/2000/svg">
<path d="M8.33337 21.2659C8.33337 19.003 8.33337 17.8715 8.79081 16.877C9.24825 15.8824 10.1073 15.146 11.8255 13.6733L13.4921 12.2448C16.5977 9.58289 18.1504 8.25195 20 8.25195C21.8497 8.25195 23.4024 9.58289 26.508 12.2448L28.1746 13.6733C29.8928 15.146 30.7518 15.8824 31.2093 16.877C31.6667 17.8715 31.6667 19.003 31.6667 21.2659V28.3332C31.6667 31.4759 31.6667 33.0473 30.6904 34.0236C29.7141 34.9999 28.1427 34.9999 25 34.9999H15C11.8573 34.9999 10.286 34.9999 9.30968 34.0236C8.33337 33.0473 8.33337 31.4759 8.33337 28.3332V21.2659Z" stroke="#DDCECE" stroke-width="2"/>
<path d="M24.1667 35V26C24.1667 25.4477 23.719 25 23.1667 25H16.8334C16.2811 25 15.8334 25.4477 15.8334 26V35" stroke="#DDCECE" stroke-width="2" stroke-linecap="round" stroke-linejoin="round"/>
</svg>
