<svg width="40" height="40" viewBox="0 0 40 40" fill="none" xmlns="http://www.w3.org/2000/svg">
<circle cx="29.1667" cy="29.1667" r="4.16667" stroke="white" stroke-width="2"/>
<path d="M35 35L32.5 32.5" stroke="white" stroke-width="2" stroke-linecap="round"/>
<path fill-rule="evenodd" clip-rule="evenodd" d="M6.66663 11.3333C6.66663 7.56202 6.66663 5.6764 7.8382 4.50482C9.00977 3.33325 10.8954 3.33325 14.6666 3.33325H25.3333C29.1045 3.33325 30.9901 3.33325 32.1617 4.50482C33.3333 5.6764 33.3333 7.56202 33.3333 11.3333V23.9621C32.192 23.0472 30.7432 22.4999 29.1666 22.4999C25.4847 22.4999 22.5 25.4847 22.5 29.1666C22.5 32.8485 25.4847 35.8333 29.1666 35.8333C30.0904 35.8333 30.9703 35.6454 31.7702 35.3057L32.0583 35.5937C30.8795 36.6666 28.9955 36.6666 25.3333 36.6666H14.6666C10.8954 36.6666 9.00977 36.6666 7.8382 35.495C6.66663 34.3234 6.66663 32.4378 6.66663 28.6666V11.3333ZM29.1666 27.4999C28.2462 27.4999 27.5 28.2461 27.5 29.1666C27.5 30.0871 28.2462 30.8333 29.1666 30.8333C30.0871 30.8333 30.8333 30.0871 30.8333 29.1666C30.8333 28.2461 30.0871 27.4999 29.1666 27.4999ZM13.3333 8.99992C12.781 8.99992 12.3333 9.44763 12.3333 9.99992C12.3333 10.5522 12.781 10.9999 13.3333 10.9999H20C20.5522 10.9999 21 10.5522 21 9.99992C21 9.44763 20.5522 8.99992 20 8.99992H13.3333ZM13.3333 15.6666C12.781 15.6666 12.3333 16.1143 12.3333 16.6666C12.3333 17.2189 12.781 17.6666 13.3333 17.6666L23.3333 17.6666C23.8856 17.6666 24.3333 17.2189 24.3333 16.6666C24.3333 16.1143 23.8856 15.6666 23.3333 15.6666L13.3333 15.6666ZM13.3333 22.3333C12.781 22.3333 12.3333 22.781 12.3333 23.3333C12.3333 23.8855 12.781 24.3333 13.3333 24.3333H18.3333C18.8856 24.3333 19.3333 23.8855 19.3333 23.3333C19.3333 22.781 18.8856 22.3333 18.3333 22.3333H13.3333Z" fill="white"/>
</svg>
