<svg width="40" height="40" viewBox="0 0 48 48" fill="none" xmlns="http://www.w3.org/2000/svg">
<g filter="url(#filter0_d_1115_1309)">
<path d="M42 34V8C42 8 40.0556 4 33.25 4C26.4444 4 24.5 10 24.5 10C24.5 10 22.5556 4 15.75 4C8.94444 4 7 8 7 8V34C7 34 8.94444 30 15.75 30C22.5556 30 24.5 34 24.5 34C24.5 34 26.4444 30 33.25 30C40.0556 30 42 34 42 34Z" fill="white"/>
<path d="M42 8H43C43 7.84853 42.9656 7.69904 42.8994 7.56281L42 8ZM42 34L41.1006 34.4372C41.3043 34.8562 41.7703 35.079 42.2243 34.9745C42.6783 34.87 43 34.4659 43 34H42ZM7 8L6.10063 7.56281C6.03441 7.69904 6 7.84853 6 8H7ZM7 34H6C6 34.4659 6.32169 34.87 6.77569 34.9745C7.22968 35.079 7.69569 34.8562 7.89937 34.4372L7 34ZM24.5 34L23.6006 34.4372C23.768 34.7815 24.1172 35 24.5 35C24.8828 35 25.232 34.7815 25.3994 34.4372L24.5 34ZM24.5 10L23.5487 10.3083C23.6824 10.7207 24.0665 11 24.5 11C24.9335 11 25.3176 10.7207 25.4513 10.3083L24.5 10ZM41 8V34H43V8H41ZM6 8V34H8V8H6ZM42 34C42.8994 33.5628 42.8991 33.5622 42.8988 33.5616C42.8986 33.5613 42.8983 33.5607 42.8981 33.5602C42.8976 33.5593 42.8972 33.5583 42.8966 33.5572C42.8956 33.5551 42.8944 33.5528 42.8931 33.5502C42.8905 33.545 42.8874 33.5388 42.8838 33.5317C42.8765 33.5175 42.867 33.4995 42.8554 33.478C42.832 33.435 42.7998 33.378 42.7578 33.3088C42.6738 33.1706 42.5507 32.9839 42.3823 32.7651C42.0454 32.3274 41.5263 31.7605 40.7761 31.1993C39.2628 30.0673 36.8643 29 33.25 29V31C36.4413 31 38.4177 31.9327 39.5781 32.8007C40.1646 33.2395 40.557 33.6726 40.7974 33.9849C40.9176 34.1411 40.9996 34.2669 41.0486 34.3474C41.073 34.3877 41.0892 34.4165 41.0976 34.4321C41.1019 34.44 41.1042 34.4444 41.1047 34.4454C41.1049 34.4458 41.1047 34.4454 41.104 34.444C41.1037 34.4434 41.1032 34.4425 41.1026 34.4413C41.1024 34.4407 41.1021 34.4401 41.1017 34.4394C41.1016 34.4391 41.1013 34.4385 41.1012 34.4384C41.1009 34.4378 41.1006 34.4372 42 34ZM33.25 29C29.6357 29 27.2372 30.0673 25.7239 31.1993C24.9737 31.7605 24.4546 32.3274 24.1177 32.7651C23.9493 32.9839 23.8262 33.1706 23.7422 33.3088C23.7002 33.378 23.668 33.435 23.6446 33.478C23.633 33.4995 23.6235 33.5175 23.6162 33.5317C23.6126 33.5388 23.6095 33.545 23.6069 33.5502C23.6056 33.5528 23.6044 33.5551 23.6034 33.5572C23.6028 33.5583 23.6024 33.5593 23.6019 33.5602C23.6017 33.5607 23.6014 33.5613 23.6012 33.5616C23.6009 33.5622 23.6006 33.5628 24.5 34C25.3994 34.4372 25.3991 34.4378 25.3988 34.4384C25.3987 34.4385 25.3984 34.4391 25.3983 34.4394C25.3979 34.4401 25.3976 34.4407 25.3974 34.4413C25.3968 34.4425 25.3963 34.4434 25.396 34.444C25.3953 34.4454 25.3951 34.4458 25.3953 34.4454C25.3958 34.4444 25.3981 34.44 25.4024 34.4321C25.4108 34.4165 25.427 34.3877 25.4514 34.3474C25.5004 34.2669 25.5824 34.1411 25.7026 33.9849C25.943 33.6726 26.3354 33.2395 26.9219 32.8007C28.0823 31.9327 30.0587 31 33.25 31V29ZM24.5 34C25.3994 33.5628 25.3991 33.5622 25.3988 33.5616C25.3986 33.5613 25.3983 33.5607 25.3981 33.5602C25.3976 33.5593 25.3972 33.5583 25.3966 33.5572C25.3956 33.5551 25.3944 33.5528 25.3931 33.5502C25.3905 33.545 25.3874 33.5388 25.3838 33.5317C25.3765 33.5175 25.367 33.4995 25.3554 33.478C25.332 33.435 25.2998 33.378 25.2578 33.3088C25.1738 33.1706 25.0507 32.9839 24.8823 32.7651C24.5454 32.3274 24.0263 31.7605 23.2761 31.1993C21.7628 30.0673 19.3643 29 15.75 29V31C18.9413 31 20.9177 31.9327 22.0781 32.8007C22.6646 33.2395 23.057 33.6726 23.2974 33.9849C23.4176 34.1411 23.4996 34.2669 23.5486 34.3474C23.573 34.3877 23.5892 34.4165 23.5976 34.4321C23.6019 34.44 23.6042 34.4444 23.6047 34.4454C23.6049 34.4458 23.6047 34.4454 23.604 34.444C23.6037 34.4434 23.6032 34.4425 23.6026 34.4413C23.6024 34.4407 23.6021 34.4401 23.6017 34.4394C23.6016 34.4391 23.6013 34.4385 23.6012 34.4384C23.6009 34.4378 23.6006 34.4372 24.5 34ZM15.75 29C12.1357 29 9.73717 30.0673 8.22392 31.1993C7.47367 31.7605 6.95455 32.3274 6.6177 32.7651C6.4493 32.9839 6.32621 33.1706 6.24224 33.3088C6.20024 33.378 6.16796 33.435 6.14463 33.478C6.13297 33.4995 6.12353 33.5175 6.11623 33.5317C6.11258 33.5388 6.10947 33.545 6.10687 33.5502C6.10557 33.5528 6.1044 33.5551 6.10337 33.5572C6.10285 33.5583 6.10236 33.5593 6.1019 33.5602C6.10168 33.5607 6.10136 33.5613 6.10124 33.5616C6.10093 33.5622 6.10063 33.5628 7 34C7.89937 34.4372 7.89908 34.4378 7.8988 34.4384C7.89872 34.4385 7.89844 34.4391 7.89828 34.4394C7.89794 34.4401 7.89763 34.4407 7.89735 34.4413C7.89679 34.4425 7.89634 34.4434 7.896 34.444C7.89533 34.4454 7.8951 34.4458 7.89534 34.4454C7.89581 34.4444 7.89813 34.44 7.90236 34.4321C7.91084 34.4165 7.92698 34.3877 7.95144 34.3474C8.00039 34.2669 8.08238 34.1411 8.20261 33.9849C8.44302 33.6726 8.83536 33.2395 9.42192 32.8007C10.5823 31.9327 12.5587 31 15.75 31V29ZM42 8C42.8994 7.56281 42.8991 7.56219 42.8988 7.56155C42.8986 7.56132 42.8983 7.56067 42.8981 7.5602C42.8976 7.55927 42.8972 7.55828 42.8966 7.55722C42.8956 7.55512 42.8944 7.55276 42.8931 7.55016C42.8905 7.54497 42.8874 7.5388 42.8838 7.53169C42.8765 7.51748 42.867 7.4995 42.8554 7.47801C42.832 7.43503 42.7998 7.37796 42.7578 7.30884C42.6738 7.17065 42.5507 6.98386 42.3823 6.76507C42.0454 6.32742 41.5263 5.76047 40.7761 5.19925C39.2628 4.06726 36.8643 3 33.25 3V5C36.4413 5 38.4177 5.93274 39.5781 6.80075C40.1646 7.23953 40.557 7.67258 40.7974 7.98493C40.9176 8.14114 40.9996 8.26685 41.0486 8.34741C41.073 8.38766 41.0892 8.41653 41.0976 8.43215C41.1019 8.43995 41.1042 8.44443 41.1047 8.44536C41.1049 8.44582 41.1047 8.44539 41.104 8.44404C41.1037 8.44336 41.1032 8.44246 41.1026 8.44132C41.1024 8.44075 41.1021 8.44012 41.1017 8.43943C41.1016 8.43909 41.1013 8.43853 41.1012 8.43836C41.1009 8.43778 41.1006 8.43719 42 8ZM33.25 3C29.51 3 27.0653 4.66399 25.5764 6.33467C24.8393 7.16175 24.3383 7.98656 24.0204 8.60597C23.8611 8.91659 23.7463 9.17832 23.67 9.36673C23.6318 9.46103 23.6031 9.53723 23.5832 9.59233C23.5732 9.61989 23.5654 9.6422 23.5597 9.65888C23.5568 9.66722 23.5545 9.67416 23.5527 9.67964C23.5518 9.68239 23.551 9.68477 23.5503 9.68678C23.55 9.68779 23.5497 9.6887 23.5494 9.68952C23.5493 9.68993 23.5491 9.69048 23.549 9.69069C23.5489 9.69121 23.5487 9.69171 24.5 10C25.4513 10.3083 25.4511 10.3087 25.451 10.3092C25.451 10.3093 25.4508 10.3097 25.4508 10.3099C25.4506 10.3104 25.4505 10.3108 25.4504 10.311C25.4502 10.3116 25.4501 10.3118 25.4502 10.3117C25.4503 10.3114 25.4508 10.3097 25.4519 10.3067C25.4539 10.3007 25.4579 10.2893 25.4638 10.2729C25.4757 10.2401 25.4954 10.1874 25.5237 10.1176C25.5803 9.97793 25.6706 9.77091 25.7999 9.51903C26.0593 9.01344 26.4698 8.33825 27.0695 7.66533C28.2542 6.33601 30.1845 5 33.25 5V3ZM24.5 10C25.4513 9.69171 25.4511 9.69121 25.451 9.69069C25.4509 9.69048 25.4507 9.68993 25.4506 9.68952C25.4503 9.6887 25.45 9.68779 25.4497 9.68678C25.449 9.68477 25.4482 9.68239 25.4473 9.67964C25.4455 9.67416 25.4432 9.66722 25.4403 9.65888C25.4346 9.6422 25.4268 9.61989 25.4168 9.59233C25.3969 9.53723 25.3682 9.46103 25.33 9.36673C25.2537 9.17832 25.1389 8.91659 24.9796 8.60597C24.6617 7.98656 24.1607 7.16175 23.4236 6.33467C21.9347 4.66399 19.49 3 15.75 3V5C18.8155 5 20.7458 6.33601 21.9305 7.66533C22.5302 8.33825 22.9407 9.01344 23.2001 9.51903C23.3294 9.77091 23.4197 9.97793 23.4763 10.1176C23.5046 10.1874 23.5243 10.2401 23.5362 10.2729C23.5421 10.2893 23.5461 10.3007 23.5481 10.3067C23.5492 10.3097 23.5497 10.3114 23.5498 10.3117C23.5499 10.3118 23.5498 10.3116 23.5496 10.311C23.5495 10.3108 23.5494 10.3104 23.5492 10.3099C23.5492 10.3097 23.549 10.3093 23.549 10.3092C23.5489 10.3087 23.5487 10.3083 24.5 10ZM15.75 3C12.1357 3 9.73717 4.06726 8.22392 5.19925C7.47367 5.76047 6.95455 6.32742 6.6177 6.76507C6.4493 6.98386 6.32621 7.17065 6.24224 7.30884C6.20024 7.37796 6.16796 7.43504 6.14463 7.47801C6.13297 7.4995 6.12353 7.51748 6.11623 7.53169C6.11258 7.5388 6.10947 7.54497 6.10687 7.55016C6.10557 7.55276 6.1044 7.55512 6.10337 7.55722C6.10285 7.55828 6.10236 7.55927 6.1019 7.5602C6.10168 7.56067 6.10136 7.56132 6.10124 7.56155C6.10093 7.56219 6.10063 7.56281 7 8C7.89937 8.43719 7.89908 8.43778 7.8988 8.43836C7.89872 8.43853 7.89844 8.43909 7.89828 8.43943C7.89794 8.44012 7.89763 8.44075 7.89735 8.44132C7.89679 8.44246 7.89634 8.44336 7.896 8.44404C7.89533 8.44539 7.8951 8.44582 7.89534 8.44536C7.89581 8.44443 7.89813 8.43995 7.90236 8.43215C7.91084 8.41653 7.92698 8.38766 7.95144 8.34741C8.00039 8.26685 8.08238 8.14114 8.20261 7.98493C8.44302 7.67258 8.83536 7.23953 9.42192 6.80075C10.5823 5.93274 12.5587 5 15.75 5V3Z" fill="white"/>
</g>
<defs>
<filter id="filter0_d_1115_1309" x="0" y="0" width="48" height="48" filterUnits="userSpaceOnUse" color-interpolation-filters="sRGB">
<feFlood flood-opacity="0" result="BackgroundImageFix"/>
<feColorMatrix in="SourceAlpha" type="matrix" values="0 0 0 0 0 0 0 0 0 0 0 0 0 0 0 0 0 0 127 0" result="hardAlpha"/>
<feOffset dy="4"/>
<feGaussianBlur stdDeviation="2"/>
<feComposite in2="hardAlpha" operator="out"/>
<feColorMatrix type="matrix" values="0 0 0 0 0 0 0 0 0 0 0 0 0 0 0 0 0 0 0.25 0"/>
<feBlend mode="normal" in2="BackgroundImageFix" result="effect1_dropShadow_1115_1309"/>
<feBlend mode="normal" in="SourceGraphic" in2="effect1_dropShadow_1115_1309" result="shape"/>
</filter>
</defs>
</svg>
